STARTFONT 2.1
COMMENT Created by fdbbdf
FONT SymbolA8
SIZE 8 78 78
FONTBOUNDINGBOX 11 15 -1 -4
STARTPROPERTIES 4
Ownership "  Copyright (c) 1984 Adobe Systems, Inc.  /adobe/fonts/Times/Greek/fontvec.ps TG10.bits  TOTAL BITMAP BYTES 1351  GUIDELINES 0 0 0 0 7 -2 5 DONE  "
FONT_ASCENT 11
FONT_DESCENT 4
DEFAULT_CHAR 33
ENDPROPERTIES
CHARS 94
STARTCHAR bracerightbt
ENCODING -1 126
SWIDTH 0 0
DWIDTH 5 0
BBX 3 12 0 -3
BITMAP
2000
2000
2000
2000
2000
2000
2000
2000
2000
2000
2000
c000
ENDCHAR
STARTCHAR bracerightmid
ENCODING -1 125
SWIDTH 0 0
DWIDTH 5 0
BBX 3 12 2 -3
BITMAP
8000
8000
8000
8000
4000
2000
4000
8000
8000
8000
8000
8000
ENDCHAR
STARTCHAR bracerighttp
ENCODING -1 124
SWIDTH 0 0
DWIDTH 5 0
BBX 3 12 0 -3
BITMAP
c000
2000
2000
2000
2000
2000
2000
2000
2000
2000
2000
2000
ENDCHAR
STARTCHAR bracketrightbt
ENCODING -1 123
SWIDTH 0 0
DWIDTH 4 0
BBX 3 12 0 -3
BITMAP
2000
2000
2000
2000
2000
2000
2000
2000
2000
2000
2000
e000
ENDCHAR
STARTCHAR bracketrightex
ENCODING -1 122
SWIDTH 0 0
DWIDTH 4 0
BBX 1 12 2 -3
BITMAP
8000
8000
8000
8000
8000
8000
8000
8000
8000
8000
8000
8000
ENDCHAR
STARTCHAR bracketrighttp
ENCODING -1 121
SWIDTH 0 0
DWIDTH 4 0
BBX 3 12 0 -3
BITMAP
e000
2000
2000
2000
2000
2000
2000
2000
2000
2000
2000
2000
ENDCHAR
STARTCHAR parenrightbt
ENCODING -1 120
SWIDTH 0 0
DWIDTH 4 0
BBX 3 14 0 -5
BITMAP
2000
2000
2000
2000
2000
2000
2000
2000
2000
2000
2000
4000
4000
8000
ENDCHAR
STARTCHAR parenrightex
ENCODING -1 119
SWIDTH 0 0
DWIDTH 4 0
BBX 1 14 2 -5
BITMAP
8000
8000
8000
8000
8000
8000
8000
8000
8000
8000
8000
8000
8000
8000
ENDCHAR
STARTCHAR parenrighttp
ENCODING -1 118
SWIDTH 0 0
DWIDTH 4 0
BBX 3 14 0 -5
BITMAP
8000
4000
4000
2000
2000
2000
2000
2000
2000
2000
2000
2000
2000
2000
ENDCHAR
STARTCHAR integralbt
ENCODING -1 117
SWIDTH 0 0
DWIDTH 7 0
BBX 4 12 0 -3
BITMAP
1000
1000
1000
1000
1000
1000
1000
1000
1000
1000
a000
c000
ENDCHAR
STARTCHAR integralex
ENCODING -1 116
SWIDTH 0 0
DWIDTH 7 0
BBX 1 12 3 -3
BITMAP
8000
8000
8000
8000
8000
8000
8000
8000
8000
8000
8000
8000
ENDCHAR
STARTCHAR integraltp
ENCODING -1 115
SWIDTH 0 0
DWIDTH 7 0
BBX 4 12 3 -3
BITMAP
3000
5000
8000
8000
8000
8000
8000
8000
8000
8000
8000
8000
ENDCHAR
STARTCHAR integral
ENCODING -1 114
SWIDTH 0 0
DWIDTH 3 0
BBX 3 12 0 -3
BITMAP
2000
4000
4000
4000
4000
4000
4000
4000
4000
4000
4000
8000
ENDCHAR
STARTCHAR angleright
ENCODING -1 113
SWIDTH 0 0
DWIDTH 3 0
BBX 3 9 0 -3
BITMAP
8000
8000
4000
4000
2000
4000
4000
8000
8000
ENDCHAR
STARTCHAR apple
ENCODING -1 112
SWIDTH 0 0
DWIDTH 8 0
BBX 6 9 1 -1
BITMAP
0800
1800
1000
6c00
f800
f800
fc00
7c00
2800
ENDCHAR
STARTCHAR braceex
ENCODING -1 111
SWIDTH 0 0
DWIDTH 5 0
BBX 1 12 2 -3
BITMAP
8000
8000
8000
8000
8000
8000
8000
8000
8000
8000
8000
8000
ENDCHAR
STARTCHAR braceleftbt
ENCODING -1 110
SWIDTH 0 0
DWIDTH 5 0
BBX 3 12 2 -3
BITMAP
8000
8000
8000
8000
8000
8000
8000
8000
8000
8000
8000
6000
ENDCHAR
STARTCHAR braceleftmid
ENCODING -1 109
SWIDTH 0 0
DWIDTH 5 0
BBX 3 12 0 -3
BITMAP
2000
2000
2000
2000
4000
8000
4000
2000
2000
2000
2000
2000
ENDCHAR
STARTCHAR bracelefttp
ENCODING -1 108
SWIDTH 0 0
DWIDTH 5 0
BBX 3 12 2 -3
BITMAP
6000
8000
8000
8000
8000
8000
8000
8000
8000
8000
8000
8000
ENDCHAR
STARTCHAR bracketleftbt
ENCODING -1 107
SWIDTH 0 0
DWIDTH 4 0
BBX 3 12 1 -3
BITMAP
8000
8000
8000
8000
8000
8000
8000
8000
8000
8000
8000
e000
ENDCHAR
STARTCHAR bracketleftex
ENCODING -1 106
SWIDTH 0 0
DWIDTH 4 0
BBX 1 12 1 -3
BITMAP
8000
8000
8000
8000
8000
8000
8000
8000
8000
8000
8000
8000
ENDCHAR
STARTCHAR bracketlefttp
ENCODING -1 105
SWIDTH 0 0
DWIDTH 4 0
BBX 3 12 1 -3
BITMAP
e000
8000
8000
8000
8000
8000
8000
8000
8000
8000
8000
8000
ENDCHAR
STARTCHAR parenleftbt
ENCODING -1 104
SWIDTH 0 0
DWIDTH 4 0
BBX 3 14 1 -5
BITMAP
8000
8000
8000
8000
8000
8000
8000
8000
8000
8000
8000
4000
4000
2000
ENDCHAR
STARTCHAR parenleftex
ENCODING -1 103
SWIDTH 0 0
DWIDTH 4 0
BBX 1 14 1 -5
BITMAP
8000
8000
8000
8000
8000
8000
8000
8000
8000
8000
8000
8000
8000
8000
ENDCHAR
STARTCHAR parenlefttp
ENCODING -1 102
SWIDTH 0 0
DWIDTH 4 0
BBX 3 14 1 -5
BITMAP
2000
4000
4000
8000
8000
8000
8000
8000
8000
8000
8000
8000
8000
8000
ENDCHAR
STARTCHAR summation
ENCODING -1 101
SWIDTH 0 0
DWIDTH 7 0
BBX 6 9 0 -2
BITMAP
fc00
8400
4000
2000
1000
2000
4000
8400
fc00
ENDCHAR
STARTCHAR trademarksans
ENCODING -1 100
SWIDTH 0 0
DWIDTH 9 0
BBX 8 5 0 1
BITMAP
fa00
5500
5500
5500
5500
ENDCHAR
STARTCHAR copyrightsans
ENCODING -1 99
SWIDTH 0 0
DWIDTH 8 0
BBX 7 8 0 -2
BITMAP
3800
4400
9a00
a200
a200
9a00
4400
3800
ENDCHAR
STARTCHAR registersans
ENCODING -1 98
SWIDTH 0 0
DWIDTH 8 0
BBX 7 8 0 -2
BITMAP
3800
4400
ba00
aa00
b200
aa00
4400
3800
ENDCHAR
STARTCHAR angleleft
ENCODING -1 97
SWIDTH 0 0
DWIDTH 3 0
BBX 3 9 0 -3
BITMAP
2000
2000
4000
4000
8000
4000
4000
2000
2000
ENDCHAR
STARTCHAR lozenge
ENCODING -1 96
SWIDTH 0 0
DWIDTH 7 0
BBX 7 7 0 -1
BITMAP
1000
2800
4400
c600
4400
2800
1000
ENDCHAR
STARTCHAR arrowdbldown
ENCODING -1 95
SWIDTH 0 0
DWIDTH 6 0
BBX 5 10 0 -1
BITMAP
5000
5000
5000
5000
5000
5000
5000
d800
5000
2000
ENDCHAR
STARTCHAR arrowdblright
ENCODING -1 94
SWIDTH 0 0
DWIDTH 10 0
BBX 9 5 1 -1
BITMAP
0200
ff00
0080
ff00
0200
ENDCHAR
STARTCHAR arrowdblup
ENCODING -1 93
SWIDTH 0 0
DWIDTH 6 0
BBX 5 10 0 -1
BITMAP
2000
7000
d800
5000
5000
5000
5000
5000
5000
5000
ENDCHAR
STARTCHAR arrowdblleft
ENCODING -1 92
SWIDTH 0 0
DWIDTH 10 0
BBX 9 5 0 -1
BITMAP
2000
7f80
8000
7f80
2000
ENDCHAR
STARTCHAR arrowdblboth
ENCODING -1 91
SWIDTH 0 0
DWIDTH 11 0
BBX 10 5 0 -1
BITMAP
2100
7f80
8040
7f80
2100
ENDCHAR
STARTCHAR logicalor
ENCODING -1 90
SWIDTH 0 0
DWIDTH 6 0
BBX 5 5 0 -1
BITMAP
8800
8800
5000
5000
2000
ENDCHAR
STARTCHAR logicaland
ENCODING -1 89
SWIDTH 0 0
DWIDTH 6 0
BBX 5 5 0 -1
BITMAP
2000
5000
5000
8800
8800
ENDCHAR
STARTCHAR logicalnot
ENCODING -1 88
SWIDTH 0 0
DWIDTH 7 0
BBX 6 3 0 -1
BITMAP
fc00
0400
0400
ENDCHAR
STARTCHAR dotmath
ENCODING -1 87
SWIDTH 0 0
DWIDTH 3 0
BBX 1 1 1 1
BITMAP
8000
ENDCHAR
STARTCHAR radical
ENCODING -1 86
SWIDTH 0 0
DWIDTH 6 0
BBX 6 10 0 -1
BITMAP
0400
0400
0800
0800
4800
d000
5000
5000
2000
2000
ENDCHAR
STARTCHAR product
ENCODING -1 85
SWIDTH 0 0
DWIDTH 9 0
BBX 8 9 0 -2
BITMAP
ff00
4200
4200
4200
4200
4200
4200
4200
e700
ENDCHAR
STARTCHAR trademarkserif
ENCODING -1 84
SWIDTH 0 0
DWIDTH 10 0
BBX 10 5 0 1
BITMAP
fd00
aa80
2a80
2a80
7ac0
ENDCHAR
STARTCHAR copyrightserif
ENCODING -1 83
SWIDTH 0 0
DWIDTH 8 0
BBX 7 8 0 -2
BITMAP
3800
4400
9a00
aa00
a200
9a00
4400
3800
ENDCHAR
STARTCHAR registerserif
ENCODING -1 82
SWIDTH 0 0
DWIDTH 8 0
BBX 7 8 0 -2
BITMAP
3800
4400
fa00
aa00
b200
ae00
4400
3800
ENDCHAR
STARTCHAR gradient
ENCODING -1 81
SWIDTH 0 0
DWIDTH 7 0
BBX 6 7 0 -1
BITMAP
fc00
8400
8400
4800
4800
3000
3000
ENDCHAR
STARTCHAR angle
ENCODING -1 80
SWIDTH 0 0
DWIDTH 8 0
BBX 7 7 0 -1
BITMAP
0200
0400
0800
1000
2000
4000
fe00
ENDCHAR
STARTCHAR notelement
ENCODING -1 79
SWIDTH 0 0
DWIDTH 7 0
BBX 5 7 1 -2
BITMAP
1000
7800
9000
f800
a000
7800
4000
ENDCHAR
STARTCHAR element
ENCODING -1 78
SWIDTH 0 0
DWIDTH 7 0
BBX 5 5 1 -1
BITMAP
7800
8000
f800
8000
7800
ENDCHAR
STARTCHAR reflexsubset
ENCODING -1 77
SWIDTH 0 0
DWIDTH 7 0
BBX 7 7 0 -3
BITMAP
3e00
4000
8000
4000
3e00
0000
fe00
ENDCHAR
STARTCHAR propersubset
ENCODING -1 76
SWIDTH 0 0
DWIDTH 7 0
BBX 7 5 0 -1
BITMAP
3e00
4000
8000
4000
3e00
ENDCHAR
STARTCHAR notsubset
ENCODING -1 75
SWIDTH 0 0
DWIDTH 7 0
BBX 7 7 0 -2
BITMAP
0400
3e00
4800
8800
5000
3e00
2000
ENDCHAR
STARTCHAR reflexsuperset
ENCODING -1 74
SWIDTH 0 0
DWIDTH 7 0
BBX 7 7 0 -3
BITMAP
f800
0400
0200
0400
f800
0000
fe00
ENDCHAR
STARTCHAR propersuperset
ENCODING -1 73
SWIDTH 0 0
DWIDTH 7 0
BBX 7 5 0 -1
BITMAP
f800
0400
0200
0400
f800
ENDCHAR
STARTCHAR union
ENCODING -1 72
SWIDTH 0 0
DWIDTH 8 0
BBX 7 5 0 -1
BITMAP
8200
8200
8200
4400
3800
ENDCHAR
STARTCHAR intersection
ENCODING -1 71
SWIDTH 0 0
DWIDTH 8 0
BBX 7 5 0 -1
BITMAP
3800
4400
8200
8200
8200
ENDCHAR
STARTCHAR emptyset
ENCODING -1 70
SWIDTH 0 0
DWIDTH 8 0
BBX 7 9 0 -2
BITMAP
0200
3c00
4c00
8a00
9200
a200
6400
7800
8000
ENDCHAR
STARTCHAR circleplus
ENCODING -1 69
SWIDTH 0 0
DWIDTH 8 0
BBX 7 7 0 -1
BITMAP
3800
4400
9200
ba00
9200
4400
3800
ENDCHAR
STARTCHAR circlemultiply
ENCODING -1 68
SWIDTH 0 0
DWIDTH 8 0
BBX 7 7 0 -1
BITMAP
3800
4400
aa00
9200
aa00
4400
3800
ENDCHAR
STARTCHAR weierstrass
ENCODING -1 67
SWIDTH 0 0
DWIDTH 9 0
BBX 7 8 1 -3
BITMAP
1000
2400
4a00
5200
2a00
5c00
9000
6000
ENDCHAR
STARTCHAR Rfraktur
ENCODING -1 66
SWIDTH 0 0
DWIDTH 8 0
BBX 8 8 0 -1
BITMAP
6c00
9200
9200
5c00
1400
1200
5200
a300
ENDCHAR
STARTCHAR Ifraktur
ENCODING -1 65
SWIDTH 0 0
DWIDTH 7 0
BBX 6 9 0 -2
BITMAP
7c00
8400
c800
1800
0c00
0400
4400
e800
3000
ENDCHAR
STARTCHAR aleph
ENCODING -1 64
SWIDTH 0 0
DWIDTH 8 0
BBX 7 7 0 -1
BITMAP
cc00
6600
3400
5c00
4c00
2600
6200
ENDCHAR
STARTCHAR carriagereturn
ENCODING -1 63
SWIDTH 0 0
DWIDTH 7 0
BBX 6 6 0 -1
BITMAP
0400
0400
0400
4400
fc00
4000
ENDCHAR
STARTCHAR arrowhorizex
ENCODING -1 62
SWIDTH 0 0
DWIDTH 10 0
BBX 10 1 0 1
BITMAP
ffc0
ENDCHAR
STARTCHAR arrowvertex
ENCODING -1 61
SWIDTH 0 0
DWIDTH 6 0
BBX 1 12 2 -3
BITMAP
8000
8000
8000
8000
8000
8000
8000
8000
8000
8000
8000
8000
ENDCHAR
STARTCHAR ellipsis
ENCODING -1 60
SWIDTH 0 0
DWIDTH 9 0
BBX 7 1 1 -1
BITMAP
9200
ENDCHAR
STARTCHAR approxequal
ENCODING -1 59
SWIDTH 0 0
DWIDTH 6 0
BBX 5 5 0 -1
BITMAP
6800
b000
0000
6800
b000
ENDCHAR
STARTCHAR equivalence
ENCODING -1 58
SWIDTH 0 0
DWIDTH 6 0
BBX 5 5 0 0
BITMAP
f800
0000
f800
0000
f800
ENDCHAR
STARTCHAR notequal
ENCODING -1 57
SWIDTH 0 0
DWIDTH 6 0
BBX 5 5 0 -1
BITMAP
1000
f800
2000
f800
4000
ENDCHAR
STARTCHAR divide
ENCODING -1 56
SWIDTH 0 0
DWIDTH 6 0
BBX 5 5 0 -1
BITMAP
2000
0000
f800
0000
2000
ENDCHAR
STARTCHAR bullet
ENCODING -1 55
SWIDTH 0 0
DWIDTH 5 0
BBX 4 3 0 0
BITMAP
6000
f000
6000
ENDCHAR
STARTCHAR partialdiff
ENCODING -1 54
SWIDTH 0 0
DWIDTH 5 0
BBX 4 8 0 -1
BITMAP
6000
9000
1000
1000
7000
9000
9000
6000
ENDCHAR
STARTCHAR proportional
ENCODING -1 53
SWIDTH 0 0
DWIDTH 7 0
BBX 6 3 0 0
BITMAP
6c00
9000
6c00
ENDCHAR
STARTCHAR multiply
ENCODING -1 52
SWIDTH 0 0
DWIDTH 6 0
BBX 5 5 0 -1
BITMAP
8800
5000
2000
5000
8800
ENDCHAR
STARTCHAR greaterequal
ENCODING -1 51
SWIDTH 0 0
DWIDTH 6 0
BBX 5 7 0 -1
BITMAP
8000
6000
1800
6000
8000
0000
f800
ENDCHAR
STARTCHAR second
ENCODING -1 50
SWIDTH 0 0
DWIDTH 4 0
BBX 5 3 0 4
BITMAP
2800
5000
a000
ENDCHAR
STARTCHAR plusminus
ENCODING -1 49
SWIDTH 0 0
DWIDTH 6 0
BBX 5 7 0 -1
BITMAP
2000
2000
f800
2000
2000
0000
f800
ENDCHAR
STARTCHAR degree
ENCODING -1 48
SWIDTH 0 0
DWIDTH 4 0
BBX 3 4 1 2
BITMAP
4000
a000
a000
4000
ENDCHAR
STARTCHAR arrowdown
ENCODING -1 47
SWIDTH 0 0
DWIDTH 6 0
BBX 5 13 0 -3
BITMAP
0000
2000
2000
2000
2000
2000
2000
2000
2000
2000
a800
7000
2000
ENDCHAR
STARTCHAR arrowright
ENCODING -1 46
SWIDTH 0 0
DWIDTH 10 0
BBX 10 5 0 -1
BITMAP
0100
0080
ffc0
0080
0100
ENDCHAR
STARTCHAR arrowup
ENCODING -1 45
SWIDTH 0 0
DWIDTH 6 0
BBX 5 12 0 -3
BITMAP
2000
7000
a800
2000
2000
2000
2000
2000
2000
2000
2000
2000
ENDCHAR
STARTCHAR arrowleft
ENCODING -1 44
SWIDTH 0 0
DWIDTH 10 0
BBX 10 5 0 -1
BITMAP
2000
4000
ffc0
4000
2000
ENDCHAR
STARTCHAR arrowboth
ENCODING -1 43
SWIDTH 0 0
DWIDTH 10 0
BBX 10 5 0 -1
BITMAP
2100
4080
ffc0
4080
2100
ENDCHAR
STARTCHAR spade
ENCODING -1 42
SWIDTH 0 0
DWIDTH 7 0
BBX 5 5 1 -1
BITMAP
2000
7000
f800
f800
2000
ENDCHAR
STARTCHAR heart
ENCODING -1 41
SWIDTH 0 0
DWIDTH 7 0
BBX 5 5 1 -1
BITMAP
d800
f800
f800
7000
2000
ENDCHAR
STARTCHAR diamond
ENCODING -1 40
SWIDTH 0 0
DWIDTH 7 0
BBX 5 5 1 -1
BITMAP
2000
7000
f800
7000
2000
ENDCHAR
STARTCHAR club
ENCODING -1 39
SWIDTH 0 0
DWIDTH 7 0
BBX 5 5 1 -1
BITMAP
7000
7000
f800
f800
2000
ENDCHAR
STARTCHAR florin
ENCODING -1 38
SWIDTH 0 0
DWIDTH 5 0
BBX 5 9 0 -3
BITMAP
1800
2000
7000
2000
2000
2000
2000
2000
c000
ENDCHAR
STARTCHAR infinity
ENCODING -1 37
SWIDTH 0 0
DWIDTH 7 0
BBX 7 3 0 0
BITMAP
6c00
9200
6c00
ENDCHAR
STARTCHAR fraction
ENCODING -1 36
SWIDTH 0 0
DWIDTH 3 0
BBX 4 7 -1 -1
BITMAP
1000
1000
2000
2000
4000
4000
8000
ENDCHAR
STARTCHAR lessequal
ENCODING -1 35
SWIDTH 0 0
DWIDTH 6 0
BBX 5 7 0 -1
BITMAP
0800
3000
c000
3000
0800
0000
f800
ENDCHAR
STARTCHAR minute
ENCODING -1 34
SWIDTH 0 0
DWIDTH 3 0
BBX 3 3 0 4
BITMAP
2000
4000
8000
ENDCHAR
STARTCHAR Upsilon1
ENCODING -1 33
SWIDTH 0 0
DWIDTH 7 0
BBX 6 7 0 -1
BITMAP
8c00
d400
7000
2000
2000
2000
7000
ENDCHAR
ENDFONT
